<?xml version="1.0" encoding="UTF-8" standalone="no"?>
<!-- Created with Inkscape (http://www.inkscape.org/) -->

<svg
   width="62.774231mm"
   height="24.074051mm"
   viewBox="0 0 62.774231 24.074051"
   version="1.1"
   id="svg1125"
   inkscape:version="1.2 (dc2aedaf03, 2022-05-15)"
   sodipodi:docname="kawlah-media3.svg"
   xml:space="preserve"
   xmlns:inkscape="http://www.inkscape.org/namespaces/inkscape"
   xmlns:sodipodi="http://sodipodi.sourceforge.net/DTD/sodipodi-0.dtd"
   xmlns:xlink="http://www.w3.org/1999/xlink"
   xmlns="http://www.w3.org/2000/svg"
   xmlns:svg="http://www.w3.org/2000/svg"><sodipodi:namedview
     id="namedview1127"
     pagecolor="#505050"
     bordercolor="#eeeeee"
     borderopacity="1"
     inkscape:showpageshadow="0"
     inkscape:pageopacity="0"
     inkscape:pagecheckerboard="0"
     inkscape:deskcolor="#505050"
     inkscape:document-units="mm"
     showgrid="false"
     inkscape:zoom="2.947377"
     inkscape:cx="155.56205"
     inkscape:cy="59.883754"
     inkscape:window-width="1920"
     inkscape:window-height="1111"
     inkscape:window-x="-9"
     inkscape:window-y="-9"
     inkscape:window-maximized="1"
     inkscape:current-layer="layer1" /><defs
     id="defs1122"><linearGradient
       id="linearGradient12773"
       inkscape:swatch="solid"><stop
         style="stop-color:#079992;stop-opacity:1"
         offset="0"
         id="stop12771" /></linearGradient><linearGradient
       inkscape:collect="always"
       xlink:href="#linearGradient12773"
       id="linearGradient12775"
       x1="36.247406"
       y1="180.48726"
       x2="99.021873"
       y2="180.48726"
       gradientUnits="userSpaceOnUse" /></defs><g
     inkscape:label="Layer 1"
     inkscape:groupmode="layer"
     id="layer1"
     transform="translate(-36.247407,-158.57258)"><rect
       style="fill:none;fill-opacity:1;stroke-width:0.237;stroke-dasharray:none"
       id="rect26747"
       width="62.658821"
       height="24.327421"
       x="36.337177"
       y="158.4828"
       inkscape:export-filename="kawlah3.svg"
       inkscape:export-xdpi="80.924927"
       inkscape:export-ydpi="80.924927" /><path
       id="rect1448-6-71"
       style="display:inline;fill:#0a3d62;fill-opacity:1;stroke-width:0.237386"
       d="m 78.89855,166.7788 -1.274857,1.33325 -0.927075,0.52141 c 0,0 -0.927297,1.04328 -1.159103,1.50689 -0.231807,0.46361 -0.115755,1.04283 -0.115755,1.04283 l -0.05788,1.62264 -1.333252,0.69556 -0.695048,0.40566 v 0.46354 l -0.521932,-0.28939 -1.332735,0.28939 -0.695564,0.57981 h -0.695565 l -1.332735,0.98495 -2.549716,6.37481 18.404562,0.33641 H 99.02187 v -5.6813 l -0.535368,0.0713 -0.289905,0.92707 0.115755,0.98547 0.17415,2.6076 -1.738912,-0.28991 -0.927075,0.34778 -1.680518,-1.27485 -1.159102,-0.75345 -0.463538,-0.40566 -1.332735,-0.28938 -1.506885,-1.04335 -1.159102,-1.33274 -0.637687,-0.92759 -0.115755,-1.04283 -0.231511,-0.8692 v -0.69556 l -0.521932,-0.11576 -0.63717,-1.39113 -0.521932,-1.33273 -0.231511,-1.39113 -0.753442,-1.44849 -1.62264,-0.0579 -0.695565,0.52142 -0.753442,-0.40566 -0.521415,-0.52142 -1.042831,0.57929 -0.40566,-0.2899 -0.464054,0.17415 z" /><path
       style="display:inline;fill:#3c6382;fill-opacity:1;stroke-width:0.0140584"
       d="m 36.304264,173.38553 0.811322,0.69542 0.811321,-0.23181 0.579517,0.40566 0.115903,-0.3477 1.216983,0.3477 h 1.738548 l 1.043129,-1.10108 1.448789,-0.28975 1.043129,-0.81133 1.216984,-0.52156 1.274935,-0.1159 0.869274,-0.63747 1.043129,-0.28976 1.216983,-0.52156 1.216984,-0.98518 0.05795,-0.40566 1.332886,-0.46361 1.216984,-0.57952 1.680596,1.50674 1.043129,1.21698 0.985177,0.57952 0.521564,1.04313 1.043129,0.69542 0.463613,0.57951 0.985177,0.11591 1.159032,-0.40566 1.738547,0.75337 2.028306,0.98517 0.811322,0.46362 1.390838,-0.23181 1.564694,0.57952 0.579516,0.57951 0.579516,-0.57951 1.043128,0.058 0.753371,1.04313 0.869274,0.52156 h 0.811322 l 0.927226,0.46361 0.869273,0.92723 0.34771,0.17385 1.332886,0.75337 -0.173854,2.60783 -41.609243,0.86927 z"
       id="path983" /><path
       id="rect1448-6-71-3"
       style="display:inline;fill:url(#linearGradient12775);fill-opacity:1;stroke-width:0.237;stroke-dasharray:none"
       d="m 36.254642,178.32796 -0.0072,0.63769 v 3.68091 H 99.02187 v -4.04471 c -0.0039,-8e-4 -0.01862,-0.004 -0.02222,-0.005 -0.269061,-0.0538 -0.269234,0.69918 -0.269234,0.69918 l -1.982308,0.0744 -0.889868,0.14056 -0.84336,0.74983 -0.421679,-0.18759 -0.98392,-0.37465 -0.889868,0.14056 -0.374654,0.42168 -0.609265,0.14056 c 0,0 -0.421524,-0.74987 -0.515214,-1.03095 -0.09369,-0.28107 -0.468189,-0.37465 -0.468189,-0.37465 l -2.014347,-0.51521 0.702283,0.93689 -0.936894,-0.047 h -0.468188 l -2.014348,-0.28112 -0.890385,0.14056 -1.499133,-0.0465 -0.842843,0.28111 c 0,0 -0.796354,0.65555 -0.936893,0.32763 -0.140539,-0.32793 -0.468706,-0.32763 -0.468706,-0.32763 l -1.546158,-0.047 -2.107882,0.14056 -0.515214,0.0935 -2.389002,-0.46818 -1.920813,0.37465 -0.421679,0.0935 -1.218014,0.0941 -1.920813,0.14056 -2.107881,-0.28112 -0.796334,-0.51521 -2.061373,0.0465 -0.04703,0.65629 -1.639693,-0.74982 c 0,0 -1.498817,1.6e-4 -1.686202,-0.0935 -0.187385,-0.0937 -2.154907,0.2341 -2.154907,0.2341 0,0 -0.937094,-0.28114 -1.124479,-0.42168 -0.187385,-0.14054 -0.187069,0.42168 -0.187069,0.42168 l -0.28112,0.65577 -1.827278,-0.98392 -0.327629,-0.0935 -0.936894,0.93689 -1.358573,-0.65577 -0.56224,0.23409 c 0,0 -2.154878,0.0468 -3.091801,-0.14056 -0.936925,-0.18738 -0.187585,0.23461 -0.187585,0.23461 h -0.327629 l -1.405599,-0.42168 -0.234094,0.56224 -0.796334,0.0935 -1.405599,-1.07745 v 0.51522 l -1.405599,-0.2341 -1.218013,-0.28112 -0.608748,0.42168 -0.936894,-0.28112 -0.14056,0.37466 H 39.59604 l -0.749825,0.0935 -1.092957,-0.53537 -0.695565,0.52142 -0.521415,-0.5793 z" /><path
       id="rect1448-8-9-5"
       style="display:none;fill:#008080;fill-opacity:1;stroke-width:0.237386"
       d="m 36.24754,171.1879 v 9.44594 c 0,1.1149 1.115107,2.01279 2.500106,2.01279 h 57.774257 c 1.385,0 2.49959,-0.89789 2.49959,-2.01279 V 172.085 c -16.867374,3.6423 -11.85562,-2.58063 -21.854442,0.42713 -13.236063,3.98156 -9.291672,-2.29523 -24.111709,0.87048 -3.214402,0.68663 -4.927019,1.95726 -16.807802,-2.19471 z"
       sodipodi:nodetypes="csssscssc" /><g
       id="g957"
       transform="matrix(0.71037397,0,0,0.71037397,9.6954688,44.96521)"
       style="fill:#ffcc00;fill-opacity:0.862745"><g
         id="g940"
         style="fill:#ffcc00;fill-opacity:0.862745"><g
           id="g924"
           style="fill:#ffcc00;fill-opacity:0.862745"><g
             id="g909"
             style="fill:#ffcc00;fill-opacity:0.862745"><g
               id="g895"
               style="fill:#ffcc00;fill-opacity:0.862745"><g
                 id="g882"
                 style="fill:#ffcc00;fill-opacity:0.862745"><g
                   id="g870"
                   style="fill:#ffcc00;fill-opacity:0.862745"><g
                     id="g859"
                     style="fill:#ffcc00;fill-opacity:0.862745"><g
                       id="g849"
                       style="fill:#ffcc00;fill-opacity:0.862745"><g
                         id="g840"
                         style="fill:#ffcc00;fill-opacity:0.862745"><g
                           id="g832"
                           style="fill:#ffcc00;fill-opacity:0.862745"><g
                             id="g825"
                             style="fill:#ffcc00;fill-opacity:0.862745"><g
                               id="g819"
                               style="fill:#ffcc00;fill-opacity:0.862745"><g
                                 id="g808"
                                 style="fill:#ffcc00;fill-opacity:0.862745"><text
                                   xml:space="preserve"
                                   style="font-style:normal;font-variant:normal;font-weight:normal;font-stretch:normal;font-size:11.6406px;font-family:'Showcard Gothic';-inkscape-font-specification:'Showcard Gothic, Normal';font-variant-ligatures:normal;font-variant-caps:normal;font-variant-numeric:lining-nums proportional-nums;fill:#ffcc00;fill-opacity:0.862745;stroke-width:0.0832394"
                                   x="39.823265"
                                   y="171.62796"
                                   id="text1192-3-4-1-9-6"><tspan
                                   sodipodi:role="line"
                                   id="tspan1190-4-1-5-3-2"
                                   style="font-style:normal;font-variant:normal;font-weight:normal;font-stretch:normal;font-size:11.6406px;font-family:'Showcard Gothic';-inkscape-font-specification:'Showcard Gothic, Normal';font-variant-ligatures:normal;font-variant-caps:normal;font-variant-numeric:lining-nums proportional-nums;fill:#ffcc00;fill-opacity:0.862745;stroke-width:0.0832394"
                                   x="39.823265"
                                   y="171.62796">KAWLAH</tspan></text></g></g></g></g></g></g></g></g></g></g></g></g></g></g></g></svg>
