<?xml version="1.0" encoding="UTF-8" standalone="no"?>
<!-- Created with Inkscape (http://www.inkscape.org/) -->

<svg
   width="25.995476mm"
   height="14.639375mm"
   viewBox="0 0 25.995476 14.639375"
   version="1.1"
   id="svg1125"
   inkscape:version="1.2 (dc2aedaf03, 2022-05-15)"
   sodipodi:docname="kawlah-media5.svg"
   xml:space="preserve"
   xmlns:inkscape="http://www.inkscape.org/namespaces/inkscape"
   xmlns:sodipodi="http://sodipodi.sourceforge.net/DTD/sodipodi-0.dtd"
   xmlns="http://www.w3.org/2000/svg"
   xmlns:svg="http://www.w3.org/2000/svg"><sodipodi:namedview
     id="namedview1127"
     pagecolor="#505050"
     bordercolor="#eeeeee"
     borderopacity="1"
     inkscape:showpageshadow="0"
     inkscape:pageopacity="0"
     inkscape:pagecheckerboard="0"
     inkscape:deskcolor="#505050"
     inkscape:document-units="mm"
     showgrid="false"
     inkscape:zoom="2.947377"
     inkscape:cx="155.90133"
     inkscape:cy="59.883754"
     inkscape:window-width="1920"
     inkscape:window-height="1111"
     inkscape:window-x="-9"
     inkscape:window-y="-9"
     inkscape:window-maximized="1"
     inkscape:current-layer="layer1" /><defs
     id="defs1122"><linearGradient
       id="linearGradient12773"
       inkscape:swatch="solid"><stop
         style="stop-color:#079992;stop-opacity:1"
         offset="0"
         id="stop12771" /></linearGradient></defs><g
     inkscape:label="Layer 1"
     inkscape:groupmode="layer"
     id="layer1"
     transform="translate(-69.659372,-167.57622)"><rect
       style="fill:none;fill-opacity:1;stroke-width:0.237;stroke-dasharray:none"
       id="rect26747"
       width="62.658821"
       height="24.327421"
       x="36.337177"
       y="158.4828"
       inkscape:export-filename="kawlah3.svg"
       inkscape:export-xdpi="80.924927"
       inkscape:export-ydpi="80.924927" /><path
       id="rect1448-6-71"
       style="display:inline;fill:#000000;fill-opacity:1;stroke:#000000;stroke-width:0.0941554"
       d="m 86.82781,175.84548 -0.505654,0.52881 -0.367711,0.20681 c 0,0 -0.3678,0.41381 -0.459742,0.59769 -0.09194,0.18389 -0.04591,0.41363 -0.04591,0.41363 l -0.02296,0.64359 -0.528816,0.27589 -0.275681,0.16089 v 0.18386 l -0.207016,-0.11478 -0.528611,0.11478 -0.275885,0.22997 h -0.275886 l -0.528611,0.39068 -1.011309,2.52847 7.299908,0.13343 h 5.715512 v -2.25341 l -0.212346,0.0283 -0.114987,0.36771 0.04591,0.39088 0.06907,1.03427 -0.689715,-0.11499 -0.367711,0.13794 -0.666553,-0.50565 -0.459742,-0.29884 -0.183856,-0.1609 -0.528609,-0.11478 -0.597685,-0.41383 -0.459742,-0.52862 -0.252929,-0.36791 -0.04591,-0.41362 -0.09183,-0.34476 v -0.27588 l -0.207018,-0.0459 -0.252724,-0.55177 -0.207017,-0.52861 -0.09183,-0.55177 -0.298842,-0.57452 -0.643597,-0.023 -0.275886,0.20682 -0.298842,-0.16089 -0.206812,-0.20682 -0.413624,0.22976 -0.160899,-0.11497 -0.184061,0.0691 z"
       inkscape:export-filename="kawlah-bw.svg"
       inkscape:export-xdpi="80.924927"
       inkscape:export-ydpi="80.924927" /><path
       style="display:inline;fill:#4d4d4d;fill-opacity:1;stroke:#000000;stroke-width:0.00557606"
       d="m 69.933392,178.46595 0.321799,0.27582 0.321799,-0.0919 0.229857,0.1609 0.04597,-0.13791 0.482699,0.13791 h 0.68957 l 0.413743,-0.43673 0.574642,-0.11492 0.413741,-0.32181 0.4827,-0.20687 0.505685,-0.0459 0.344786,-0.25284 0.413741,-0.11494 0.482699,-0.20687 0.4827,-0.39075 0.02298,-0.1609 0.528671,-0.18389 0.482699,-0.22986 0.666584,0.59763 0.413743,0.4827 0.390756,0.22986 0.206871,0.41374 0.413743,0.27583 0.183885,0.22986 0.390756,0.046 0.459714,-0.16089 0.68957,0.29881 0.804499,0.39075 0.321799,0.18389 0.551656,-0.0919 0.620614,0.22985 0.229857,0.22986 0.229857,-0.22986 0.413741,0.023 0.298814,0.41374 0.344786,0.20687 h 0.321798 l 0.367772,0.18389 0.344785,0.36777 0.137914,0.0689 0.52867,0.29882 -0.06895,1.03435 -16.503714,0.34479 z"
       id="path983" /><path
       id="rect1448-6-71-3"
       style="display:inline;fill:#333333;fill-opacity:1;stroke-width:0.0940023;stroke-dasharray:none"
       d="m 69.913709,180.42629 -0.0028,0.25293 v 1.45998 H 94.80946 v -1.60428 c -0.0015,-3.1e-4 -0.0074,-0.002 -0.0088,-0.002 -0.10672,-0.0213 -0.106788,0.27732 -0.106788,0.27732 l -0.786255,0.0295 -0.352953,0.0558 -0.334507,0.2974 -0.167253,-0.0744 -0.390258,-0.1486 -0.352953,0.0558 -0.148601,0.16725 -0.241657,0.0558 c 0,0 -0.167192,-0.29743 -0.204352,-0.40891 -0.03716,-0.11148 -0.1857,-0.1486 -0.1857,-0.1486 l -0.798963,-0.20435 0.278551,0.3716 -0.371605,-0.0186 h -0.185701 l -0.798962,-0.11151 -0.353159,0.0558 -0.594609,-0.0185 -0.334303,0.1115 c 0,0 -0.315862,0.26002 -0.371604,0.12995 -0.05574,-0.13007 -0.185906,-0.12995 -0.185906,-0.12995 l -0.613262,-0.0186 -0.836061,0.0558 -0.204353,0.0371 -0.947563,-0.1857 -0.761864,0.1486 -0.167252,0.0371 -0.483108,0.0373 -0.761863,0.0558 -0.836061,-0.11151 -0.315855,-0.20434 -0.817615,0.0185 -0.01865,0.26031 -0.650361,-0.2974 c 0,0 -0.594485,6e-5 -0.668808,-0.0371 -0.07433,-0.0372 -0.854713,0.0928 -0.854713,0.0928 0,0 -0.371685,-0.11152 -0.446008,-0.16726 -0.07433,-0.0558 -0.0742,0.16726 -0.0742,0.16726 l -0.111501,0.2601 -0.724765,-0.39026 -0.129949,-0.0371 -0.371606,0.37161 -0.538858,-0.26011 -0.223005,0.0929 c 0,0 -0.854701,0.0186 -1.226319,-0.0558 -0.371618,-0.0743 -0.0744,0.0931 -0.0744,0.0931 h -0.129949 l -0.557511,-0.16726 -0.09285,0.223 -0.315855,0.0371 -0.55751,-0.42734 v 0.20435 l -0.557511,-0.0929 -0.483108,-0.11149 -0.241451,0.16725 -0.371606,-0.11151 -0.05575,0.14861 h -0.352952 l -0.297408,0.0371 -0.433506,-0.21235 -0.275886,0.20682 -0.206812,-0.22978 z" /><path
       id="rect1448-8-9-5"
       style="display:none;fill:#008080;fill-opacity:1;stroke-width:0.237386"
       d="m 36.24754,171.1879 v 9.44594 c 0,1.1149 1.115107,2.01279 2.500106,2.01279 h 57.774257 c 1.385,0 2.49959,-0.89789 2.49959,-2.01279 V 172.085 c -16.867374,3.6423 -11.85562,-2.58063 -21.854442,0.42713 -13.236063,3.98156 -9.291672,-2.29523 -24.111709,0.87048 -3.214402,0.68663 -4.927019,1.95726 -16.807802,-2.19471 z"
       sodipodi:nodetypes="csssscssc" /><g
       id="g957"
       transform="matrix(0.52436807,0,0,0.52436807,48.655127,82.274207)"
       style="fill:#1a1a1a;fill-opacity:0.862745"><g
         id="g940"
         style="fill:#1a1a1a;fill-opacity:0.862745"><g
           id="g924"
           style="fill:#1a1a1a;fill-opacity:0.862745"><g
             id="g909"
             style="fill:#1a1a1a;fill-opacity:0.862745"><g
               id="g895"
               style="fill:#1a1a1a;fill-opacity:0.862745"><g
                 id="g882"
                 style="fill:#1a1a1a;fill-opacity:0.862745"><g
                   id="g870"
                   style="fill:#1a1a1a;fill-opacity:0.862745"><g
                     id="g859"
                     style="fill:#1a1a1a;fill-opacity:0.862745"><g
                       id="g849"
                       style="fill:#1a1a1a;fill-opacity:0.862745"><g
                         id="g840"
                         style="fill:#1a1a1a;fill-opacity:0.862745"><g
                           id="g832"
                           style="fill:#1a1a1a;fill-opacity:0.862745"><g
                             id="g825"
                             style="fill:#1a1a1a;fill-opacity:0.862745"><g
                               id="g819"
                               style="fill:#1a1a1a;fill-opacity:0.862745"><g
                                 id="g808"
                                 style="fill:#1a1a1a;fill-opacity:0.862745"><text
                                   xml:space="preserve"
                                   style="font-style:normal;font-variant:normal;font-weight:normal;font-stretch:normal;font-size:11.6406px;font-family:'Showcard Gothic';-inkscape-font-specification:'Showcard Gothic, Normal';font-variant-ligatures:normal;font-variant-caps:normal;font-variant-numeric:lining-nums proportional-nums;fill:#1a1a1a;fill-opacity:0.862745;stroke-width:0.0832394"
                                   x="39.823265"
                                   y="171.62796"
                                   id="text1192-3-4-1-9-6"><tspan
                                   sodipodi:role="line"
                                   id="tspan1190-4-1-5-3-2"
                                   style="font-style:normal;font-variant:normal;font-weight:normal;font-stretch:normal;font-size:11.6406px;font-family:'Showcard Gothic';-inkscape-font-specification:'Showcard Gothic, Normal';font-variant-ligatures:normal;font-variant-caps:normal;font-variant-numeric:lining-nums proportional-nums;fill:#1a1a1a;fill-opacity:0.862745;stroke-width:0.0832394"
                                   x="39.823265"
                                   y="171.62796">KAWLAH</tspan></text></g></g></g></g></g></g></g></g></g></g></g></g></g></g><rect
       style="fill:none;stroke:none;stroke-width:0.306369"
       id="rect503"
       width="23.387945"
       height="23.387945"
       x="70.111252"
       y="159.04231"
       rx="0"
       ry="0" /></g></svg>
