<?xml version="1.0" encoding="UTF-8" standalone="no"?>
<!-- Created with Inkscape (http://www.inkscape.org/) -->

<svg
   width="62.774231mm"
   height="24.074051mm"
   viewBox="0 0 62.774231 24.074051"
   version="1.1"
   id="svg1125"
   inkscape:version="1.2 (dc2aedaf03, 2022-05-15)"
   sodipodi:docname="kawlah-media3.svg"
   xml:space="preserve"
   xmlns:inkscape="http://www.inkscape.org/namespaces/inkscape"
   xmlns:sodipodi="http://sodipodi.sourceforge.net/DTD/sodipodi-0.dtd"
   xmlns:xlink="http://www.w3.org/1999/xlink"
   xmlns="http://www.w3.org/2000/svg"
   xmlns:svg="http://www.w3.org/2000/svg"><sodipodi:namedview
     id="namedview1127"
     pagecolor="#505050"
     bordercolor="#eeeeee"
     borderopacity="1"
     inkscape:showpageshadow="0"
     inkscape:pageopacity="0"
     inkscape:pagecheckerboard="0"
     inkscape:deskcolor="#505050"
     inkscape:document-units="mm"
     showgrid="false"
     inkscape:zoom="2.947377"
     inkscape:cx="155.56205"
     inkscape:cy="59.883754"
     inkscape:window-width="1920"
     inkscape:window-height="1111"
     inkscape:window-x="-9"
     inkscape:window-y="-9"
     inkscape:window-maximized="1"
     inkscape:current-layer="layer1" /><defs
     id="defs1122"><linearGradient
       id="linearGradient12773"
       inkscape:swatch="solid"><stop
         style="stop-color:#079992;stop-opacity:1"
         offset="0"
         id="stop12771" /></linearGradient><linearGradient
       inkscape:collect="always"
       xlink:href="#linearGradient12773"
       id="linearGradient12775"
       x1="36.247407"
       y1="180.48726"
       x2="99.02187"
       y2="180.48726"
       gradientUnits="userSpaceOnUse" /></defs><g
     inkscape:label="Layer 1"
     inkscape:groupmode="layer"
     id="layer1"
     transform="translate(-36.247407,-158.57258)"><rect
       style="fill:none;fill-opacity:1;stroke-width:0.237;stroke-dasharray:none"
       id="rect26747"
       width="62.658821"
       height="24.327421"
       x="36.337177"
       y="158.4828"
       inkscape:export-filename="kawlah2.svg"
       inkscape:export-xdpi="80.924927"
       inkscape:export-ydpi="80.924927" /><path
       id="rect1448-6-71"
       style="display:inline;fill:#0a3d62;fill-opacity:1;stroke-width:0.237386"
       d="M 78.89855 166.7788 L 77.623693 168.11205 L 76.696618 168.63346 C 76.696618 168.63346 75.769321 169.67674 75.537515 170.14035 C 75.305708 170.60396 75.42176 171.18318 75.42176 171.18318 L 75.363882 172.80582 L 74.03063 173.50138 L 73.335582 173.90704 L 73.335582 174.37058 L 72.81365 174.08119 L 71.480915 174.37058 L 70.785351 174.95039 L 70.089786 174.95039 L 68.757051 175.93534 L 66.207335 182.31015 L 84.611897 182.64656 L 99.02187 182.64656 L 99.02187 176.96526 L 98.486502 177.03657 L 98.196597 177.96364 L 98.312352 178.94911 L 98.486502 181.55671 L 96.74759 181.2668 L 95.820515 181.61458 L 94.139997 180.33973 L 92.980895 179.58628 L 92.517357 179.18062 L 91.184622 178.89124 L 89.677737 177.84789 L 88.518635 176.51515 L 87.880948 175.58756 L 87.765193 174.54473 L 87.533682 173.67553 L 87.533682 172.97997 L 87.01175 172.86421 L 86.37458 171.47308 L 85.852648 170.14035 L 85.621137 168.74922 L 84.867695 167.30073 L 83.245055 167.24285 L 82.54949 167.76427 L 81.796048 167.35861 L 81.274633 166.83719 L 80.231802 167.41648 L 79.826142 167.12658 L 79.362088 167.30073 L 78.89855 166.7788 z " /><path
       style="display:inline;fill:#3c6382;fill-opacity:1;stroke-width:0.0140584"
       d="m 36.304264,173.38553 0.811322,0.69542 0.811321,-0.23181 0.579517,0.40566 0.115903,-0.3477 1.216983,0.3477 h 1.738548 l 1.043129,-1.10108 1.448789,-0.28975 1.043129,-0.81133 1.216984,-0.52156 1.274935,-0.1159 0.869274,-0.63747 1.043129,-0.28976 1.216983,-0.52156 1.216984,-0.98518 0.05795,-0.40566 1.332886,-0.46361 1.216984,-0.57952 1.680596,1.50674 1.043129,1.21698 0.985177,0.57952 0.521564,1.04313 1.043129,0.69542 0.463613,0.57951 0.985177,0.11591 1.159032,-0.40566 1.738547,0.75337 2.028306,0.98517 0.811322,0.46362 1.390838,-0.23181 1.564694,0.57952 0.579516,0.57951 0.579516,-0.57951 1.043128,0.058 0.753371,1.04313 0.869274,0.52156 h 0.811322 l 0.927226,0.46361 0.869273,0.92723 0.34771,0.17385 1.332886,0.75337 -0.173854,2.60783 -41.609243,0.86927 z"
       id="path983" /><path
       id="rect1448-6-71-3"
       style="display:inline;fill:url(#linearGradient12775);fill-opacity:1;stroke-width:0.237;stroke-dasharray:none"
       d="M 36.254642 178.32796 L 36.247407 178.96565 L 36.247407 182.64656 L 99.02187 182.64656 L 99.02187 178.60185 C 99.017941 178.60105 99.003255 178.59792 98.999649 178.5972 C 98.730588 178.54339 98.730415 179.29638 98.730415 179.29638 L 96.748107 179.37079 L 95.858239 179.51135 L 95.014879 180.26118 L 94.5932 180.07359 L 93.60928 179.69894 L 92.719412 179.8395 L 92.344758 180.26118 L 91.735493 180.40174 C 91.735493 180.40174 91.313969 179.65187 91.220279 179.37079 C 91.126586 179.08972 90.75209 178.99614 90.75209 178.99614 L 88.737743 178.48093 L 89.440026 179.41782 L 88.503132 179.37079 L 88.034944 179.37079 L 86.020596 179.08967 L 85.130211 179.23023 L 83.631078 179.18373 L 82.788235 179.46484 C 82.788235 179.46484 81.991881 180.12039 81.851342 179.79247 C 81.710803 179.46454 81.382636 179.46484 81.382636 179.46484 L 79.836478 179.41782 L 77.728596 179.55838 L 77.213382 179.65191 L 74.82438 179.18373 L 72.903567 179.55838 L 72.481888 179.65191 L 71.263874 179.74596 L 69.343061 179.88652 L 67.23518 179.6054 L 66.438846 179.09019 L 64.377473 179.1367 L 64.330447 179.79299 L 62.690754 179.04317 C 62.690754 179.04317 61.191937 179.04333 61.004552 178.94963 C 60.817167 178.85593 58.849645 179.18373 58.849645 179.18373 C 58.849645 179.18373 57.912551 178.90259 57.725166 178.76205 C 57.537781 178.62151 57.538097 179.18373 57.538097 179.18373 L 57.256977 179.8395 L 55.429699 178.85558 L 55.10207 178.76205 L 54.165176 179.69894 L 52.806603 179.04317 L 52.244363 179.27726 C 52.244363 179.27726 50.089485 179.32408 49.152562 179.1367 C 48.215637 178.94932 48.964977 179.37131 48.964977 179.37131 L 48.637348 179.37131 L 47.231749 178.94963 L 46.997655 179.51187 L 46.201321 179.6054 L 44.795722 178.52795 L 44.795722 179.04317 L 43.390123 178.80907 L 42.17211 178.52795 L 41.563362 178.94963 L 40.626468 178.66851 L 40.485908 179.04317 L 39.59604 179.04317 L 38.846215 179.1367 L 37.753258 178.60133 L 37.057693 179.12275 L 36.536278 178.54345 L 36.254642 178.32796 z " /><path
       id="rect1448-8-9-5"
       style="display:none;fill:#008080;fill-opacity:1;stroke-width:0.237386"
       d="m 36.24754,171.1879 v 9.44594 c 0,1.1149 1.115107,2.01279 2.500106,2.01279 h 57.774257 c 1.385,0 2.49959,-0.89789 2.49959,-2.01279 V 172.085 c -16.867374,3.6423 -11.85562,-2.58063 -21.854442,0.42713 -13.236063,3.98156 -9.291672,-2.29523 -24.111709,0.87048 -3.214402,0.68663 -4.927019,1.95726 -16.807802,-2.19471 z"
       sodipodi:nodetypes="csssscssc" /><g
       id="g957"
       transform="matrix(0.71037397,0,0,0.71037397,9.6954688,44.96521)"
       style="fill:#0a3d62;fill-opacity:1"><g
         id="g940"
         style="fill:#0a3d62;fill-opacity:1"><g
           id="g924"
           style="fill:#0a3d62;fill-opacity:1"><g
             id="g909"
             style="fill:#0a3d62;fill-opacity:1"><g
               id="g895"
               style="fill:#0a3d62;fill-opacity:1"><g
                 id="g882"
                 style="fill:#0a3d62;fill-opacity:1"><g
                   id="g870"
                   style="fill:#0a3d62;fill-opacity:1"><g
                     id="g859"
                     style="fill:#0a3d62;fill-opacity:1"><g
                       id="g849"
                       style="fill:#0a3d62;fill-opacity:1"><g
                         id="g840"
                         style="fill:#0a3d62;fill-opacity:1"><g
                           id="g832"
                           style="fill:#0a3d62;fill-opacity:1"><g
                             id="g825"
                             style="fill:#0a3d62;fill-opacity:1"><g
                               id="g819"
                               style="fill:#0a3d62;fill-opacity:1"><g
                                 id="g808"
                                 style="fill:#0a3d62;fill-opacity:1"><text
                                   xml:space="preserve"
                                   style="font-style:normal;font-variant:normal;font-weight:normal;font-stretch:normal;font-size:11.6406px;font-family:'Showcard Gothic';-inkscape-font-specification:'Showcard Gothic, Normal';font-variant-ligatures:normal;font-variant-caps:normal;font-variant-numeric:lining-nums proportional-nums;fill:#0a3d62;fill-opacity:1;stroke-width:0.0832394"
                                   x="39.823265"
                                   y="171.62796"
                                   id="text1192-3-4-1-9-6"><tspan
                                   sodipodi:role="line"
                                   id="tspan1190-4-1-5-3-2"
                                   style="font-style:normal;font-variant:normal;font-weight:normal;font-stretch:normal;font-size:11.6406px;font-family:'Showcard Gothic';-inkscape-font-specification:'Showcard Gothic, Normal';font-variant-ligatures:normal;font-variant-caps:normal;font-variant-numeric:lining-nums proportional-nums;fill:#0a3d62;fill-opacity:1;stroke-width:0.0832394"
                                   x="39.823265"
                                   y="171.62796">KAWLAH</tspan></text></g></g></g></g></g></g></g></g></g></g></g></g></g></g><ellipse
       style="fill:#079992;fill-opacity:1;stroke-width:0.237;stroke-dasharray:none"
       id="path24715"
       cx="42.531242"
       cy="154.69006"
       rx="1.6158434"
       ry="1.660728" /><ellipse
       style="fill:#3c6382;fill-opacity:1;stroke-width:0.237;stroke-dasharray:none"
       id="path24715-5"
       cx="47.827618"
       cy="154.69006"
       rx="1.6158434"
       ry="1.660728" /><ellipse
       style="fill:#0a3d62;fill-opacity:1;stroke-width:0.237;stroke-dasharray:none"
       id="path24715-5-6"
       cx="53.123993"
       cy="154.69006"
       rx="1.6158434"
       ry="1.660728" /><ellipse
       style="fill:#f6b93b;fill-opacity:1;stroke-width:0.237;stroke-dasharray:none"
       id="path24715-5-6-0"
       cx="58.420372"
       cy="154.69006"
       rx="1.6158434"
       ry="1.660728" /><ellipse
       style="fill:#e55039;fill-opacity:1;stroke-width:0.237;stroke-dasharray:none"
       id="path24715-5-6-0-7"
       cx="63.716747"
       cy="154.69006"
       rx="1.6158434"
       ry="1.660728" /><ellipse
       style="fill:#b71540;fill-opacity:0.862745;stroke-width:0.237;stroke-dasharray:none"
       id="path24715-5-6-0-7-8"
       cx="69.013123"
       cy="154.69006"
       rx="1.6158434"
       ry="1.660728" /></g></svg>
