<?xml version="1.0" encoding="UTF-8" standalone="no"?>
<!-- Created with Inkscape (http://www.inkscape.org/) -->

<svg
   width="23.345217mm"
   height="23.345219mm"
   viewBox="0 0 23.345217 23.345219"
   version="1.1"
   id="svg1125"
   xml:space="preserve"
   xmlns="http://www.w3.org/2000/svg"
   xmlns:svg="http://www.w3.org/2000/svg"><defs
     id="defs1122"><linearGradient
       id="linearGradient12773"><stop
         style="stop-color:#079992;stop-opacity:1"
         offset="0"
         id="stop12771" /></linearGradient></defs><g
     id="layer1"
     transform="translate(-37.14247,-158.83926)"><rect
       style="fill:none;fill-opacity:1;stroke-width:0.237;stroke-dasharray:none"
       id="rect26747"
       width="62.658821"
       height="24.327421"
       x="36.337177"
       y="158.4828" /><g
       id="g1741"><circle
         style="fill:#ffcc00;stroke:#1a1a1a;stroke-width:0.275;stroke-dasharray:none"
         id="path1014"
         cx="48.815079"
         cy="170.51187"
         r="11.535109" /><path
         id="rect1448-6-71"
         style="display:inline;fill:#000000;fill-opacity:1;stroke:#000000;stroke-width:0.229009"
         d="m 50.014043,166.95309 -1.229899,1.28623 -0.894519,0.50281 c 0,0 -0.894652,1.00642 -1.118278,1.45366 -0.223619,0.44726 -0.111621,1.00614 -0.111621,1.00614 l -0.05581,1.56528 -1.286227,0.67128 -0.670243,0.39119 v 0.447 l -0.503845,-0.27905 -1.28571,0.27905 -0.67076,0.55965 h -0.671277 l -1.285709,0.95033 -0.649573,1.62419 a 11.535109,11.535109 0 0 0 9.234578,4.6359 11.535109,11.535109 0 0 0 10.182841,-6.13245 l -0.318843,-0.46353 -0.111621,-1.00614 -0.223243,-0.8382 v -0.67127 l -0.503328,-0.11162 -0.61495,-1.34204 -0.503328,-1.28571 -0.223242,-1.34204 -0.727088,-1.39733 -1.565279,-0.0558 -0.671277,0.50281 -0.72657,-0.39119 -0.503329,-0.50281 -1.005623,0.55862 -0.391707,-0.27957 -0.447518,0.16795 z" /><path
         id="path983"
         style="display:inline;fill:#1a1a1a;fill-opacity:1;stroke:#000000;stroke-width:0.0135623"
         d="m 38.0556,174.66373 a 11.535109,11.535109 0 0 0 7.852234,7.00319 l 3.15588,-0.0661 0.167432,-2.51561 -1.28571,-0.72657 -0.33538,-0.16795 -0.838709,-0.89452 -0.894519,-0.447 h -0.782381 l -0.838708,-0.50333 -0.727088,-1.00614 -1.00614,-0.0558 -0.559139,0.55914 -0.559139,-0.55914 -1.509468,-0.55914 -1.341521,0.22376 z" /><path
         id="rect1448-6-71-3"
         style="display:inline;fill:#333333;fill-opacity:1;stroke-width:0.228636;stroke-dasharray:none"
         d="m 56.783656,178.84539 -0.758093,0.11989 -1.445907,-0.045 -0.813387,0.27079 c 0,0 -0.768242,0.63262 -0.903821,0.31626 -0.135571,-0.31636 -0.452168,-0.31626 -0.452168,-0.31626 l -1.491382,-0.045 -2.033468,0.13591 -0.497127,0.0899 -2.304769,-0.45165 -1.853117,0.36174 -0.406693,0.0899 -1.175122,0.0909 -1.016993,0.0744 a 11.535109,11.535109 0 0 0 7.183541,2.50941 11.535109,11.535109 0 0 0 7.968506,-3.20136 z" /></g><path
       id="rect1448-8-9-5"
       style="display:none;fill:#008080;fill-opacity:1;stroke-width:0.237386"
       d="m 36.24754,171.1879 v 9.44594 c 0,1.1149 1.115107,2.01279 2.500106,2.01279 h 57.774257 c 1.385,0 2.49959,-0.89789 2.49959,-2.01279 V 172.085 c -16.867374,3.6423 -11.85562,-2.58063 -21.854442,0.42713 -13.236063,3.98156 -9.291672,-2.29523 -24.111709,0.87048 -3.214402,0.68663 -4.927019,1.95726 -16.807802,-2.19471 z" /></g></svg>
